<svg width="16" height="16" viewBox="0 0 16 16" fill="none" xmlns="http://www.w3.org/2000/svg">
<path fill-rule="evenodd" clip-rule="evenodd" d="M10.1875 0.5H5.8125C5.64062 0.5 5.5 0.640625 5.5 0.8125V8.25984L5.60153 8.15831L6.29306 8.46544C6.48094 8.36791 6.67688 8.28662 6.87866 8.22262L7.15037 7.51678H8.84966L9.12134 8.22262C9.32312 8.28662 9.51909 8.36791 9.70694 8.46544L10.3984 8.15831L10.5 8.25988V0.8125C10.5 0.640625 10.3594 0.5 10.1875 0.5ZM7.63869 7.08781C7.63869 7.19109 7.55447 7.27531 7.45119 7.27531H6.66488C6.56159 7.27531 6.47738 7.19109 6.47738 7.08781V6.3015C6.47738 6.19822 6.56159 6.114 6.66488 6.114H7.45119C7.55447 6.114 7.63869 6.19822 7.63869 6.3015V7.08781ZM7.63869 5.20391C7.63869 5.30719 7.55447 5.39141 7.45119 5.39141H6.66488C6.56159 5.39141 6.47738 5.30719 6.47738 5.20391V4.41759C6.47738 4.31431 6.56159 4.23009 6.66488 4.23009H7.45119C7.55447 4.23009 7.63869 4.31431 7.63869 4.41759V5.20391ZM9.52259 7.08781C9.52259 7.19109 9.43837 7.27531 9.33509 7.27531H8.54878C8.4455 7.27531 8.36128 7.19109 8.36128 7.08781V6.3015C8.36128 6.19822 8.4455 6.114 8.54878 6.114H9.33509C9.43834 6.114 9.52259 6.19822 9.52259 6.3015V7.08781ZM9.52259 5.20391C9.52259 5.30719 9.43837 5.39141 9.33509 5.39141H8.54878C8.4455 5.39141 8.36128 5.30719 8.36128 5.20391V4.41759C8.36128 4.31431 8.4455 4.23009 8.54878 4.23009H9.33509C9.43834 4.23009 9.52259 4.31431 9.52259 4.41759V5.20391ZM9.52259 2.59753C9.52259 2.70081 9.43837 2.78503 9.33509 2.78503H6.66488C6.56159 2.78503 6.47738 2.70081 6.47738 2.59753V1.85447C6.47738 1.75119 6.56159 1.66697 6.66488 1.66697H9.33509C9.43837 1.66697 9.52259 1.75119 9.52259 1.85447V2.59753ZM5.00003 2.17644H0.8125C0.640375 2.17644 0.5 2.31681 0.5 2.48894V12.4848C0.5 12.6569 0.640375 12.7973 0.8125 12.7973H4.25L3.75841 12.6081V10.9087L3.91278 10.8493H3.29881C3.19553 10.8493 3.11131 10.7651 3.11131 10.6618V9.87553C3.11131 9.77225 3.19553 9.68803 3.29881 9.68803H4.08512C4.18837 9.68803 4.27262 9.77225 4.27262 9.87553V10.6618C4.27262 10.6798 4.27009 10.6972 4.26531 10.7136L4.46419 10.6371C4.52819 10.4353 4.60947 10.2393 4.70703 10.0514L4.39994 9.35994L5.00003 8.75981V2.17644ZM2.38872 10.6618C2.38872 10.7651 2.3045 10.8493 2.20122 10.8493H1.41491C1.31163 10.8493 1.22741 10.7651 1.22741 10.6618V9.8755C1.22741 9.77222 1.31163 9.688 1.41491 9.688H2.20122C2.30447 9.688 2.38872 9.77222 2.38872 9.8755V10.6618ZM2.38872 8.77794C2.38872 8.88122 2.3045 8.96544 2.20122 8.96544H1.41491C1.31163 8.96544 1.22741 8.88122 1.22741 8.77794V7.99162C1.22741 7.88834 1.31163 7.80412 1.41491 7.80412H2.20122C2.30447 7.80412 2.38872 7.88834 2.38872 7.99162V8.77794ZM2.38872 6.89406C2.38872 6.99734 2.3045 7.08156 2.20122 7.08156H1.41491C1.31163 7.08156 1.22741 6.99734 1.22741 6.89406V6.10775C1.22741 6.0045 1.31163 5.92025 1.41491 5.92025H2.20122C2.30447 5.92025 2.38872 6.00447 2.38872 6.10775V6.89406ZM4.27259 8.77794C4.27259 8.88122 4.18838 8.96544 4.08509 8.96544H3.29878C3.1955 8.96544 3.11128 8.88122 3.11128 8.77794V7.99162C3.11128 7.88834 3.1955 7.80412 3.29878 7.80412H4.08509C4.18834 7.80412 4.27259 7.88834 4.27259 7.99162V8.77794ZM4.27259 6.89406C4.27259 6.99734 4.18838 7.08156 4.08509 7.08156H3.29878C3.1955 7.08156 3.11128 6.99734 3.11128 6.89406V6.10775C3.11128 6.0045 3.1955 5.92025 3.29878 5.92025H4.08509C4.18834 5.92025 4.27259 6.00447 4.27259 6.10775V6.89406ZM4.27262 4.43488C4.27262 4.53816 4.18841 4.62238 4.08512 4.62238H1.41491C1.31163 4.62238 1.22741 4.53816 1.22741 4.43488V3.69181C1.22741 3.58853 1.31163 3.50431 1.41491 3.50431H4.08512C4.18841 3.50431 4.27262 3.58853 4.27262 3.69181V4.43488ZM15.2922 4.60259L11 3.07547V8.75984L11.6001 9.35991L11.293 10.0512C11.3906 10.2392 11.4719 10.4352 11.5359 10.6371L11.7347 10.7136C11.7299 10.6971 11.7274 10.6798 11.7274 10.6618V9.8755C11.7274 9.77222 11.8116 9.688 11.9149 9.688H12.7012C12.8045 9.688 12.8887 9.77222 12.8887 9.8755V10.6618C12.8887 10.7651 12.8045 10.8493 12.7012 10.8493H12.0872L12.2416 10.9087V12.608L11.7499 12.7973H15.1875C15.3596 12.7973 15.5 12.6569 15.5 12.4848V4.89703C15.5 4.76234 15.4191 4.64775 15.2922 4.60259ZM12.8887 8.77794C12.8887 8.88122 12.8045 8.96544 12.7012 8.96544H11.9149C11.8116 8.96544 11.7274 8.88122 11.7274 8.77794V7.99162C11.7274 7.88834 11.8116 7.80412 11.9149 7.80412H12.7012C12.8045 7.80412 12.8887 7.88834 12.8887 7.99162V8.77794ZM14.7726 10.6618C14.7726 10.7651 14.6884 10.8493 14.5851 10.8493H13.7988C13.6955 10.8493 13.6113 10.7651 13.6113 10.6618V9.8755C13.6113 9.77222 13.6955 9.688 13.7988 9.688H14.5851C14.6884 9.688 14.7726 9.77222 14.7726 9.8755V10.6618ZM14.7726 8.77794C14.7726 8.88122 14.6884 8.96544 14.5851 8.96544H13.7988C13.6955 8.96544 13.6113 8.88122 13.6113 8.77794V7.99162C13.6113 7.88834 13.6955 7.80412 13.7988 7.80412H14.5851C14.6884 7.80412 14.7726 7.88834 14.7726 7.99162V8.77794ZM14.9167 6.36284C14.9167 6.46612 14.8325 6.55034 14.7292 6.55034H11.7708C11.6675 6.55034 11.5833 6.46612 11.5833 6.36284V5.51394C11.5833 5.41066 11.6675 5.32644 11.7708 5.32644H14.7292C14.8325 5.32644 14.9167 5.41066 14.9167 5.51394V6.36284ZM11.1217 11.0134C11.0431 10.683 10.9121 10.3673 10.734 10.0781L11.0038 9.47069L10.2877 8.75459L9.68006 9.02444C9.39091 8.84638 9.07538 8.71541 8.74503 8.63678L8.50638 8.01675H7.49366L7.25497 8.63678C6.92462 8.71541 6.60909 8.84638 6.31991 9.02444L5.71231 8.75459L4.99619 9.47072L5.26603 10.0782C5.08797 10.3674 4.95697 10.683 4.87834 11.0133L4.25838 11.252V12.2647L4.87825 12.5033C4.95691 12.8337 5.08784 13.1494 5.26597 13.4386L4.99619 14.046L5.71231 14.7621L6.31991 14.4923C6.60906 14.6703 6.92459 14.8013 7.25494 14.8799L7.49366 15.5H8.50638L8.74497 14.8801C9.07541 14.8015 9.39106 14.6705 9.68025 14.4924L10.2877 14.7622L11.0038 14.046L10.7339 13.4384C10.912 13.1493 11.0429 12.8337 11.1216 12.5034L11.7416 12.2647V11.252L11.1217 11.0134ZM8 13.5246C7.02447 13.5246 6.23381 12.7339 6.23381 11.7584C6.23381 10.7829 7.02447 9.99219 8 9.99219C8.97553 9.99219 9.76619 10.7829 9.76619 11.7584C9.76619 12.7339 8.97553 13.5246 8 13.5246Z" fill="#0A0A0A"/>
</svg>
