<svg width="40" height="40" viewBox="0 0 40 40" fill="none" xmlns="http://www.w3.org/2000/svg">
<g clip-path="url(#clip0_12_1172)">
<path d="M15.4166 0H2.91656C1.30829 0 0 1.30829 0 2.91656V10.4166C0 12.0251 1.30829 13.3334 2.91656 13.3334H15.4166C17.0251 13.3334 18.3334 12.0251 18.3334 10.4166V2.91656C18.3334 1.30829 17.0251 0 15.4166 0Z" fill="#0A0A0A"/>
<path d="M15.4166 16.6666H2.91656C1.30829 16.6666 0 17.9749 0 19.5834V37.0834C0 38.6917 1.30829 40 2.91656 40H15.4166C17.0251 40 18.3334 38.6917 18.3334 37.0834V19.5834C18.3334 17.9749 17.0251 16.6666 15.4166 16.6666Z" fill="#0A0A0A"/>
<path d="M37.0834 26.6666H24.5834C22.9749 26.6666 21.6666 27.9749 21.6666 29.5834V37.0834C21.6666 38.6917 22.9749 40 24.5834 40H37.0834C38.6917 40 40 38.6917 40 37.0834V29.5834C40 27.9749 38.6917 26.6666 37.0834 26.6666Z" fill="#0A0A0A"/>
<path d="M37.0834 0H24.5834C22.9749 0 21.6666 1.30829 21.6666 2.91656V20.4166C21.6666 22.0251 22.9749 23.3334 24.5834 23.3334H37.0834C38.6917 23.3334 40 22.0251 40 20.4166V2.91656C40 1.30829 38.6917 0 37.0834 0Z" fill="#0A0A0A"/>
</g>
<defs>
<clipPath id="clip0_12_1172">
<rect width="40" height="40" fill="white"/>
</clipPath>
</defs>
</svg>
