<svg width="12" height="16" viewBox="0 0 12 16" fill="none" xmlns="http://www.w3.org/2000/svg">
<path fill-rule="evenodd" clip-rule="evenodd" d="M3.50483 0.916464C3.50486 0.806116 3.54869 0.700291 3.6267 0.622244C3.70471 0.544196 3.81051 0.500312 3.92086 0.500234L8.08084 0.5C8.19122 0.500256 8.29699 0.544262 8.37497 0.622372C8.45296 0.700482 8.49679 0.806324 8.49687 0.916699V1.94554H3.50483V0.916464ZM10.3447 14.9044C10.3341 15.0666 10.2618 15.2186 10.1428 15.3294C10.0238 15.4401 9.86691 15.5011 9.70434 15.5H2.24955C2.08703 15.4995 1.93068 15.4376 1.81192 15.3267C1.69316 15.2157 1.62077 15.064 1.60928 14.9018L0.971359 5.57006H11.0255L10.3448 14.9042L10.3447 14.9044ZM12.002 4.72488H0V3.75806C0.000178421 3.50164 0.102106 3.25577 0.283402 3.07444C0.464699 2.8931 0.710546 2.79112 0.966965 2.79089L11.0349 2.79057C11.2913 2.79096 11.5371 2.89303 11.7183 3.07439C11.8995 3.25574 12.0015 3.50158 12.0017 3.75797V4.72479L12.002 4.72488ZM4.06849 13.2754C4.06849 13.3309 4.07942 13.3858 4.10065 13.4371C4.12189 13.4884 4.15301 13.5349 4.19225 13.5742C4.23148 13.6134 4.27806 13.6445 4.32932 13.6658C4.38059 13.687 4.43553 13.6979 4.49102 13.6979C4.54651 13.6979 4.60145 13.687 4.65271 13.6658C4.70398 13.6445 4.75056 13.6134 4.78979 13.5742C4.82903 13.5349 4.86015 13.4884 4.88138 13.4371C4.90262 13.3858 4.91355 13.3309 4.91355 13.2754V7.35006C4.91266 7.23862 4.86778 7.13205 4.78868 7.05356C4.70958 6.97506 4.60267 6.93099 4.49124 6.93095C4.3798 6.93092 4.27286 6.97491 4.19371 7.05335C4.11456 7.13179 4.0696 7.23833 4.06864 7.34976V13.2754H4.06849ZM7.08321 13.2754C7.08321 13.3875 7.12773 13.495 7.20698 13.5742C7.28623 13.6535 7.39372 13.698 7.50579 13.698C7.61787 13.698 7.72536 13.6535 7.80461 13.5742C7.88386 13.495 7.92838 13.3875 7.92838 13.2754V7.35006C7.92749 7.23861 7.88261 7.13202 7.8035 7.05351C7.72439 6.97501 7.61746 6.93093 7.50601 6.9309C7.39456 6.93086 7.2876 6.97486 7.20844 7.05331C7.12928 7.13176 7.08432 7.23831 7.08335 7.34976L7.08321 13.2754Z" fill="#FD5454"/>
</svg>
