<svg width="15" height="16" viewBox="0 0 15 16" fill="none" xmlns="http://www.w3.org/2000/svg">
<path d="M8.57065 10.0367C8.42651 10.1808 8.24838 10.2908 8.05535 10.3552L6.19087 10.9767C6.05631 11.0216 5.91597 11.0444 5.774 11.0444C5.42182 11.0444 5.09074 10.9072 4.84175 10.6582C4.48635 10.3027 4.36435 9.78579 4.52329 9.30904L5.14479 7.44465C5.2091 7.25155 5.31926 7.07331 5.46325 6.92931L9.49025 2.90234H1.61133C0.722841 2.90234 0 3.62519 0 4.51367V13.8887C0 14.7772 0.722841 15.5 1.61133 15.5H10.9863C11.8748 15.5 12.5976 14.7772 12.5976 13.8887V6.00974L8.57065 10.0367Z" fill="#0A0A0A"/>
<path d="M6.08469 7.55077C6.03644 7.59902 6.00011 7.65782 5.97855 7.72254L5.35704 9.58696C5.30439 9.74487 5.3455 9.91895 5.46318 10.0367C5.5809 10.1544 5.75498 10.1955 5.91289 10.1428L7.77734 9.52133C7.84209 9.49977 7.90086 9.46344 7.94911 9.41519L13.4389 3.92546L11.5745 2.06104L6.08469 7.55077Z" fill="#0A0A0A"/>
<path d="M13.9567 0.714519C13.6706 0.428494 13.2069 0.428494 12.9209 0.714519L12.1958 1.43959L14.0603 3.30404L14.7853 2.57897C15.0713 2.29295 15.0713 1.82921 14.7853 1.54318L13.9567 0.714519Z" fill="#0A0A0A"/>
</svg>
