<svg width="17" height="16" viewBox="0 0 17 16" fill="none" xmlns="http://www.w3.org/2000/svg">
<path d="M4.15215 5.21739C4.8678 5.21739 5.53393 4.93315 6.03055 4.41718C6.15699 4.16543 6.3181 3.93409 6.50798 3.7296C6.67563 3.37805 6.76085 3.00108 6.76085 2.6087C6.76085 1.17026 5.59059 0 4.15215 0C2.71372 0 1.54346 1.17026 1.54346 2.6087C1.54346 4.04713 2.71372 5.21739 4.15215 5.21739Z" fill="#0A0A0A"/>
<path d="M8.67388 8.34782C10.1123 8.34782 11.2826 7.17756 11.2826 5.73913C11.2826 4.30069 10.1123 3.13043 8.67388 3.13043C7.23545 3.13043 6.06519 4.30069 6.06519 5.73913C6.06519 7.17756 7.23545 8.34782 8.67388 8.34782Z" fill="#0A0A0A"/>
<path d="M11.3172 4.41718C11.8138 4.93315 12.48 5.21739 13.1956 5.21739C14.634 5.21739 15.8043 4.04713 15.8043 2.6087C15.8043 1.17026 14.634 0 13.1956 0C11.7572 0 10.5869 1.17026 10.5869 2.6087C10.5869 3.00104 10.6721 3.37798 10.8398 3.72953C11.0297 3.93405 11.1908 4.16539 11.3172 4.41718Z" fill="#0A0A0A"/>
<path d="M13.1956 5.56525C12.6442 5.56525 12.1162 5.68448 11.6244 5.91961C11.5533 7.09373 10.794 8.08448 9.74548 8.49384C11.4324 8.96344 12.6739 10.5133 12.6739 12.3479V12.8696H16.8478V9.21742C16.8478 7.20361 15.2094 5.56525 13.1956 5.56525Z" fill="#0A0A0A"/>
<path d="M7.60233 8.49384C6.55381 8.08445 5.7945 7.09373 5.72341 5.91961C5.23162 5.68448 4.70358 5.56525 4.15217 5.56525C2.13837 5.56525 0.5 7.20361 0.5 9.21742V12.8696H4.67391V12.3479C4.67391 10.5133 5.91541 8.96344 7.60233 8.49384Z" fill="#0A0A0A"/>
<path d="M8.6739 8.69568C6.66009 8.69568 5.02173 10.3341 5.02173 12.3479V16H12.3261V12.3479C12.3261 10.3341 10.6877 8.69568 8.6739 8.69568Z" fill="#0A0A0A"/>
</svg>
