<svg width="16" height="16" viewBox="0 0 16 16" fill="none" xmlns="http://www.w3.org/2000/svg">
<g clip-path="url(#clip0_51_1232)">
<path d="M8.46875 10.8125C8.72759 10.8125 8.9375 10.6026 8.9375 10.3438V8.46875C8.9375 8.20991 8.72769 8 8.46875 8H7.53125C7.27241 8 7.0625 8.20981 7.0625 8.46875V10.3438C7.0625 10.6026 7.27237 10.8125 7.53125 10.8125H8.46875Z" fill="#0A0A0A"/>
<path d="M14.5938 2.84375H11.2812C11.2812 2.74934 11.2812 2.28059 11.2812 2.375C11.2812 1.59956 10.6505 0.96875 9.875 0.96875C9.77325 0.96875 5.98578 0.96875 6.125 0.96875C5.34956 0.96875 4.71875 1.59953 4.71875 2.375C4.71875 2.46941 4.71875 2.93816 4.71875 2.84375H1.40625C0.630813 2.84375 0 3.47453 0 4.25C0 5.16803 0.1125 5.972 0.335875 6.65716C0.55925 7.34231 0.893531 7.90869 1.33712 8.35156C2.08359 9.09703 3.03441 9.40625 4.10203 9.40625H6.125C6.125 9.31184 6.125 8.37434 6.125 8.46875C6.125 7.69331 6.75578 7.0625 7.53125 7.0625C7.62566 7.0625 8.56316 7.0625 8.46875 7.0625C9.24419 7.0625 9.875 7.69328 9.875 8.46875C9.875 8.56316 9.875 9.50066 9.875 9.40625H10.9165C11.8497 9.36747 13.376 9.65122 14.6624 8.37078C15.1062 7.92903 15.4406 7.36166 15.6641 6.67328C15.8875 5.98491 16 5.17559 16 4.25C16 3.47456 15.3692 2.84375 14.5938 2.84375ZM5.65625 2.375C5.65625 2.11637 5.86634 1.90625 6.125 1.90625H9.875C10.1336 1.90625 10.3438 2.11634 10.3438 2.375C10.3438 2.46941 10.3438 2.93816 10.3438 2.84375H5.65625C5.65625 2.74934 5.65625 2.28059 5.65625 2.375Z" fill="#0A0A0A"/>
<path d="M10.9293 10.3437H9.875C9.875 11.1192 9.24422 11.75 8.46875 11.75C8.37434 11.75 7.43684 11.75 7.53125 11.75C6.75581 11.75 6.125 11.1192 6.125 10.3437C6.01791 10.3437 3.99037 10.3437 4.10612 10.3437C2.76912 10.3437 1.59478 9.93348 0.674719 9.01485C0.414812 8.75538 0.192875 8.46323 0 8.15076V14.5625C0 14.8216 0.209656 15.0312 0.46875 15.0312H15.5312C15.7903 15.0312 16 14.8216 16 14.5625V8.17004C15.8045 8.48726 15.5817 8.77873 15.3239 9.03544C13.8448 10.5068 12.2696 10.2804 10.9293 10.3437Z" fill="#0A0A0A"/>
</g>
<defs>
<clipPath id="clip0_51_1232">
<rect width="16" height="16" fill="white"/>
</clipPath>
</defs>
</svg>
