<svg width="16" height="16" viewBox="0 0 16 16" fill="none" xmlns="http://www.w3.org/2000/svg">
<path fill-rule="evenodd" clip-rule="evenodd" d="M10.7774 0.34375L7.21265 1.86759V14.4997H8.29793V11.8443L8.04677 11.8682C7.94402 11.8779 7.85287 11.8025 7.84318 11.6997C7.83349 11.597 7.9089 11.5058 8.01165 11.4961L9.94327 11.3123C10.046 11.3025 10.1372 11.378 10.1469 11.4807C10.1566 11.5835 10.0812 11.6746 9.97843 11.6843L9.69215 11.7116V14.4996H14.3422V1.86759L10.7774 0.34375ZM8.61105 10.1423L7.93724 10.2067V8.90481L8.61105 8.80091V10.1423ZM8.61127 8.02741L7.93727 8.15403V6.84897L8.61127 6.68284V8.02741ZM8.61127 5.9115L7.93727 6.10028V4.79522L8.61127 4.56694V5.9115ZM8.61127 3.7945L7.93727 4.04444V2.82522L8.61149 2.53622L8.61127 3.7945ZM10.0528 10.0049L9.29352 10.0777V8.69419L10.0528 8.57691V10.0049ZM10.0528 7.75478L9.29352 7.89769V6.51528L10.0528 6.32791V7.75475V7.75478ZM10.0528 5.50578L9.29352 5.71875V4.33525L10.0528 4.07778V5.50578ZM10.0528 3.25678L9.29352 3.53981L9.2933 2.24409L10.0528 1.91825V3.25678H10.0528ZM11.8561 12.2813C11.8561 12.3848 11.7722 12.4688 11.6686 12.4688C11.5651 12.4688 11.4811 12.3848 11.4811 12.2813V1.98147C11.4811 1.87791 11.5651 1.79397 11.6686 1.79397C11.7722 1.79397 11.8561 1.87791 11.8561 1.98147V12.2813V12.2813ZM12.7473 12.2813C12.7473 12.3848 12.6634 12.4688 12.5598 12.4688C12.4562 12.4688 12.3723 12.3848 12.3723 12.2813V2.36244C12.3723 2.25888 12.4563 2.17494 12.5598 2.17494C12.6633 2.17494 12.7473 2.25891 12.7473 2.36244V12.2813V12.2813ZM13.6385 12.2813C13.6385 12.3848 13.5546 12.4688 13.451 12.4688C13.3474 12.4688 13.2635 12.3848 13.2635 12.2813V2.74341C13.2635 2.63984 13.3474 2.55591 13.451 2.55591C13.5546 2.55591 13.6385 2.63984 13.6385 2.74341V12.2813V12.2813ZM5.36996 4.02394L1.6579 5.61075V14.4997H2.81683V12.438L2.56568 12.4619C2.46293 12.4716 2.37177 12.3962 2.36208 12.2935C2.3524 12.1907 2.4278 12.0996 2.53055 12.0899L4.46218 11.906C4.56493 11.8963 4.65608 11.9718 4.6658 12.0745C4.67549 12.1772 4.60008 12.2684 4.49733 12.2781L4.21105 12.3054V14.4997H6.83768V4.65134L5.36996 4.02394ZM2.99943 10.52L2.45102 10.5951V9.53944L2.99943 9.42678V10.52ZM2.99943 8.79931L2.45102 8.93419V7.87853L2.99943 7.70612V8.79931ZM2.99962 7.078L2.45105 7.27197V6.28603L2.9998 6.05491L2.99962 7.078ZM4.19196 10.3553L3.56037 10.4423V9.31181L4.19196 9.18147V10.3553ZM4.19196 8.50484L3.56037 8.66044V7.52922L4.19196 7.32963V8.50484ZM4.19196 6.65369L3.56018 6.87856V5.81919L4.19196 5.55147V6.65369ZM0.361084 14.8747H15.639V15.6562H0.361084V14.8747Z" fill="#0A0A0A"/>
</svg>
