<svg width="16" height="16" viewBox="0 0 16 16" fill="none" xmlns="http://www.w3.org/2000/svg">
<path d="M15.4811 7.26488C15.5676 7.09191 15.5676 6.83245 15.4811 6.57299C15.3946 6.4865 15.3946 6.40002 15.3081 6.31353L13.5784 4.5838C13.2325 4.23785 12.7135 4.23785 12.3676 4.5838C12.0217 4.92975 12.0217 5.44866 12.3676 5.79461L12.6271 6.05407H10.3784C9.8595 6.05407 9.51355 6.40002 9.51355 6.91894C9.51355 7.43785 9.8595 7.7838 10.3784 7.7838H12.6271L12.3676 8.04326C12.0217 8.38921 12.0217 8.90812 12.3676 9.25407C12.5406 9.42704 12.8 9.51353 12.973 9.51353C13.146 9.51353 13.4054 9.42704 13.5784 9.25407L15.3081 7.52434C15.3946 7.43785 15.4811 7.35137 15.4811 7.26488Z" fill="#0A0A0A"/>
<path d="M11.2432 9.51351C10.7243 9.51351 10.3784 9.85946 10.3784 10.3784V11.2432C10.3784 11.7622 10.0324 12.1081 9.51351 12.1081H8.64865V4.67027C8.64865 3.54595 7.95676 2.59459 7.00541 2.24865L5.62162 1.72973H9.51351C10.0324 1.72973 10.3784 2.07568 10.3784 2.59459V3.45946C10.3784 3.97838 10.7243 4.32432 11.2432 4.32432C11.7622 4.32432 12.1081 3.97838 12.1081 3.45946V2.59459C12.1081 1.12432 10.9838 0 9.51351 0H0.864865C0.778378 0 0.691892 -8.37687e-08 0.605405 0.0864864C0.518919 0.0864864 0.432432 0.172973 0.432432 0.172973C0.432432 0.172973 0.432433 0.172973 0.345946 0.259459C0.25946 0.259459 0.172973 0.345946 0.172973 0.432432V0.518919C0.0864863 0.518919 0 0.605405 0 0.691892V0.778378V0.864865V12.973C0 13.3189 0.259459 13.6649 0.518919 13.7514L6.22703 15.9135C6.4 16 6.65946 16 6.83243 16C7.17838 16 7.52432 15.9135 7.78378 15.6541C8.21622 15.3081 8.56216 14.7892 8.56216 14.2703V13.8378H9.42703C10.8973 13.8378 12.0216 12.7135 12.0216 11.2432V10.3784C12.1081 9.94595 11.7622 9.51351 11.2432 9.51351Z" fill="#0A0A0A"/>
</svg>
